# xmcd
#
# Track frame offsets: 
#        150
#        16135
#        33430
#        47258
#        63778
#        83240
#        107245
#        129170
#        151668
#        170050
#        185545
#
# Disc length: 2660 seconds
#
# Revision: 8
# Processed by: cddbd v1.5.2PL0 Copyright (c) Steve Scherf et al.
# Submitted via: ExactAudioCopy v1.0b3
#
DISCID=7b0a620b
DTITLE=Simply Red - Stay
DYEAR=2007
DGENRE=Rock
TTITLE0=The world and you tonight
TTITLE1=So not over you
TTITLE2=Stay
TTITLE3=They don't know
TTITLE4=Oh! What a girl!
TTITLE5=Good times have done me wrong
TTITLE6=Debris
TTITLE7=Lady
TTITLE8=Money TV
TTITLE9=The death of the cool
TTITLE10=Little Englander
EXTD=
EXTT0=
EXTT1=
EXTT2=
EXTT3=
EXTT4=
EXTT5=
EXTT6=
EXTT7=
EXTT8=
EXTT9=
EXTT10=
PLAYORDER=
